<svg width="16" height="17" viewBox="0 0 16 17" fill="none" xmlns="http://www.w3.org/2000/svg">
<g id="Group 1">
<path id="Subtract" fill-rule="evenodd" clip-rule="evenodd" d="M3.60889 14.5291C8.36084 14.5291 12.2131 10.6769 12.2131 5.92494C12.2131 3.85219 11.4801 1.95063 10.2593 0.465271C13.3349 1.77701 15.4908 4.82838 15.4908 8.38328C15.4908 13.1352 11.6386 16.9874 6.88662 16.9874C4.20742 16.9874 1.81423 15.7629 0.236206 13.8429C1.27187 14.2847 2.41183 14.5291 3.60889 14.5291Z" fill="white"/>
<path id="Star 1" d="M4.83791 3.87634L5.50188 5.6707L7.29624 6.33468L5.50188 6.99865L4.83791 8.79301L4.17394 6.99865L2.37958 6.33468L4.17394 5.6707L4.83791 3.87634Z" fill="white"/>
<path id="Star 2" d="M7.50111 8.3833L7.88842 9.43001L8.93513 9.81733L7.88842 10.2046L7.50111 11.2514L7.11379 10.2046L6.06708 9.81733L7.11379 9.43001L7.50111 8.3833Z" fill="white"/>
</g>
</svg>
